<?xml version="1.0" encoding="UTF-8"?>
<svg id="_Слой_1" data-name="Слой 1" xmlns="http://www.w3.org/2000/svg" viewBox="0 0 389.7 385.29">
  <g>
    <path d="M152.22,.19c.24,.4,1.28,2.16,2.43,3.84,12.81,20.2,16.36,49.23,10.99,90.24-2.73,20.84-1.11,33.28,7.08,54.39,1.85,4.75,3.68,10.29,4.08,12.21,1.35,6.64-.24,11.97-4.99,16.83-2.56,2.56-10.02,7.92-10.99,7.92-.24,0-1.62,.88-3.14,1.92-3.2,2.39-13.56,7.45-18.38,9.07-11.63,3.91-21.75,5.6-34.03,5.53-11.74,0-18.04-.94-28.5-4.18-8.84-2.73-11.63-2.97-16.05-1.11-1.85,.81-4.25,1.62-5.29,1.79-4.18,.94-10.05-2.26-10.05-5.4,.07-2.8,3.84-5.94,8.26-6.74,2.39-.47,7.69,.54,11.33,2.09,3.37,1.45,3.2,.3-.24-1.45-6.68-3.3-14.2-2.97-23.5,1.11-8.26,3.61-12.68,4.42-25.83,4.72-12.34,.3-15.41,.57-15.41,1.38,0,.57,3.27,.98,11.33,1.45,5.36,.34,45.42,5.06,49.44,5.87,.98,.17,4.89,1.35,8.73,2.56,15.88,5.13,31.53,8.26,57.43,11.63,9.78,1.28,22.63,3.07,28.46,4.08,5.87,.94,10.69,1.62,10.82,1.58,.07-.1-1.75-.94-4.08-1.79-8.43-3.27-17.67-4.99-27.18-4.99-5.46,0-7.39-.71-8.67-2.97-.74-1.38-.74-1.69,.17-3.07,2.16-3.3,8.16-5.53,23.61-8.73,14.2-2.9,19.15-3.51,29.1-3.51s15.31,.88,20.71,3.37c2.63,1.21,3.07,1.28,2.63,.47-.54-.94-2.26-7.15-2.73-9.71-.54-3.03-2.56-10.29-3.14-11.33-.34-.71-2.09-5.53-3.78-10.76-1.75-5.23-4.89-13.79-7.05-19.02-8.36-20.44-11.16-30.72-11.7-43.06-.4-7.96,.3-11.23,2.87-13.66,3.61-3.51,10.99-1.11,13.56,4.35,1.11,2.39,1.21,2.43,3.37,2.09,3.07-.47,6.88,1.45,8.16,4.11,.54,1.18,.98,3.37,.98,4.96v2.9l3.37-.34c6.98-.74,10.35,1.62,10.99,7.62,.3,2.66,.54,3.2,1.45,3.2,2.02,0,5.23,1.85,6.41,3.71,.74,1.28,1.05,2.63,.94,4.75l-.17,2.97,3.71,.64c6.41,1.11,9.37,4.35,9.37,10.29v3.61l2.5,.3c1.35,.17,3.54,.74,4.75,1.38,3.07,1.45,7.79,6.17,10.02,10.12,1.69,2.97,5.7,13.39,5.13,13.39-.1,0,.17,1.38,.71,3.03,1.35,4.32,1.28,14.3-.07,18.21-1.69,4.65-6.88,10.49-11.33,12.75-1.92,.98-6.88,2.39-11.53,3.3-2.02,.34-3.68,.88-3.68,1.05,0,.24,2.8,1.38,6.27,2.63,15.65,5.63,20.3,8.73,29.3,19.56,2.56,3.03,4.99,5.7,5.4,5.94,.57,.34,.88-.98,1.18-6.27,.64-9.78-.4-24.15-2.63-36.89-.3-1.75-.71-4.35-.88-5.83-.74-5.83-2.66-13.89-4.08-17.47-2.56-6.51-2.8-8.09-2.66-17.03,.07-6.91-.07-8.97-.88-10.59-.88-1.92-.88-2.16,.07-4.11,2.02-4.32,.17-10.29-3.54-11.57-.94-.3-1.75-.57-1.79-.57-.1-.07,.4-1.11,1.05-2.39,2.26-4.32,.71-9.14-3.71-11.47l-2.16-1.11,1.45-1.75c1.69-1.99,1.79-3.3,.54-6.04-1.05-2.26-5.06-6.04-6.34-6.04-1.18,0-1.11-.17,.57-2.66,2.26-3.3,3.2-7.39,3.2-13.62,0-4.75-1.18-11.8-2.02-12.75-.17-.1-.88,.3-1.62,.94-2.23,2.02-8.09,5.83-12.44,7.96-6.68,3.37-7.62,2.66-3.51-2.66,1.38-1.75,3.27-4.89,4.25-6.91,1.52-3.3,1.69-4.32,1.69-9.54,0-3.2-.3-6.27-.57-6.81-.54-.88-.94-.57-3.2,2.26-4.11,5.19-17.4,16.12-18.38,15.14-.17-.17,1.38-2.33,3.51-4.75,5.36-6.34,6.44-8.8,6.44-14.53-.07-3.95-.3-5.13-1.69-7.79l-1.62-3.2-1.92,4.08c-3.14,6.68-14.13,21.18-16.12,21.18-.3,0,.81-2.43,2.39-5.4,1.58-2.9,3.44-6.98,4.08-8.97,2.26-6.74,1.18-15.01-2.9-21.41l-1.79-2.87-1.35,5.19c-3.14,12.27-9.71,25.73-12.58,25.9-.17,0,.1-2.02,.64-4.55,.57-2.43,1.58-7.28,2.33-10.69,2.33-11.06,1.11-18.28-4.11-24.04-1.69-1.85-5.13-4.35-5.87-4.35-.17,0-.47,1.92-.71,4.18-.81,8.43-4.89,26.07-6.04,26.07-.3,0-1.05-3.27-1.79-7.22-3.84-21.08-12.68-33.86-26.13-37.8-2.16-.64-2.97-.71-2.63-.17l-.1-.17Z"/>
    <path d="M292.37,57.15c1.79,3.44,3.68,9.71,4.65,15.71,2.97,17.67-2.73,37.57-14.84,51.97-7.39,8.8-9.41,12.17-10.12,16.76l-.34,2.16,1.85-1.79c2.5-2.5,8.43-5.23,11.7-5.36,3.61-.17,5.46,1.38,7.39,6.04,1.69,4.11,1.79,4.18,6.44,2.56,4.55-1.62,7.69,0,8.36,4.25,.54,3.51,.88,3.78,3.3,2.73,3.2-1.35,6-1.11,7.69,.57,1.21,1.18,1.45,1.99,1.45,4.59v3.14l2.33,.4c3.68,.64,5.23,2.23,5.23,5.29,0,3.84-1.28,5.7-6.04,8.9-5.13,3.51-6.17,5.29-6.17,10.76s-.98,7.32-5.36,10.66c-4.82,3.68-11.53,10.29-13.56,13.56-6.88,10.89-9.64,23.1-6.68,29.51,1.35,2.97,1.99,3.14,2.16,.57,.3-4.32,1.62-7.72,4.89-12.61,4.32-6.41,8.57-10.42,16.59-15.41,15.78-9.85,20.23-13.25,22.69-17.47,.98-1.69,1.69-4.08,2.02-6.81,.4-3.44,.94-4.75,2.9-7.69,1.99-3.03,2.33-3.91,2.09-5.77-.24-1.52-.07-2.16,.47-2.16,1.05,0,4.25-3.78,4.72-5.6,.24-.81,.24-2.9,.07-4.59-.24-2.26-.1-3.2,.47-3.37,.4-.17,1.35-1.52,2.02-3.03,1.69-3.51,1.45-8.84-.47-10.93l-1.28-1.38,1.21-1.11c2.73-2.43,5.19-9.64,5.19-15.17v-1.92l-4.32,3.2c-2.39,1.75-5.87,4.11-7.72,5.23-5.77,3.44-5.7,2.87,.47-4.35,5.83-6.74,8.16-11.4,8.57-16.86,.1-2.16,.07-4.08-.24-4.25s-2.39,1.92-4.59,4.72c-4.59,5.6-16.46,18.14-17.23,18.14-.54,0,.07-1.18,5.36-10.18,6.81-11.74,8.97-17.67,7.69-21.18-.54-1.35-.64-1.28-2.23,1.45-3.27,5.53-8.8,12.81-13.56,17.67-5.4,5.53-5.46,6,.3-4.35,3.27-5.87,4.82-11.8,4.82-17.91,0-4.75-.81-8.09-1.52-6.51-.17,.3-.98,2.26-1.85,4.35-2.56,6.1-7.72,15.48-10.12,18.14-2.09,2.43-2.16,2.43-1.69,.74,.3-.98,1.11-3.07,1.85-4.65,2.63-5.7,2.09-21.28-.94-28.09-2.39-5.29-2.66-4.75-4.08,8.26-.54,4.75-1.45,10.12-2.02,11.87-1.18,3.2-3.68,7.08-4.72,7.08-.64,0-.71,.17,.3-4.18,1.92-8.33,1.69-20.2-.54-28.7-2.09-8.09-6.88-14.6-13.02-17.91l-3.03-1.58,.98,1.85v.03Z"/>
    <path d="M180.89,229.3c2.97,3.03,9.85,8.5,14.6,11.7,14.3,9.54,30.82,15.55,50.55,18.14,6.24,.88,31.46,3.3,32.81,3.2,1.38-.07-10.76-3.14-24.38-6.1-18.51-4.01-27.05-6.41-40.13-11.13-13.72-4.96-24.48-10.05-32.88-15.71-1.05-.71-1.21-.71-.57-.1Z"/>
    <path d="M301.44,248.52c-4.11,1.92-10.82,2.97-16.59,2.63l-5.13-.34,4.25,4.82c12.85,14.5,19.09,19.32,37.4,29.37,11.47,6.24,28.46,14.67,30.82,15.31,1.28,.34,3.78,1.52,5.53,2.56,5.19,3.14,11.7,5.06,18.11,5.4,3.51,.17,6.34,0,7.55-.4,2.16-.74,6.81-4.42,6.27-4.99-.17-.17-1.52,.1-2.9,.64-2.02,.74-3.91,.88-8.97,.57-8.16-.47-11.87-1.38-5.77-1.45,5.06-.07,9.21-1.21,12.81-3.71,3.14-2.09,3.84-3.27,1.85-2.97-3.27,.47-9.61,1.52-10.66,1.79-.64,.17,.07-.54,1.58-1.58,2.63-1.75,5.53-4.99,4.99-5.53-.4-.4-7.55,1.75-10.05,3.07-3.2,1.62-9.31,3.44-13.22,3.91-2.87,.34-3.61,.24-5.36-.81-1.11-.71-4.49-2.26-7.45-3.51s-8.26-3.84-11.8-5.83c-3.51-1.92-7.72-4.11-9.41-4.82-3.3-1.35-3.71-1.92-1.85-2.5,1.05-.34,1.11-.54,.34-1.69-.81-1.18-.74-1.38,.24-1.99,1.58-.98,1.38-1.85-1.05-4.99-2.02-2.63-2.09-2.87-1.38-4.72,.98-2.8,.3-3.71-4.72-6.74-7.86-4.65-10.93-6.91-10.93-8.03,0-.64,.4-1.28,.94-1.45s.81-.88,.71-1.62c-.24-1.79-2.87-1.92-6.17-.4Zm70.11,50.31c-.17,.17-.71,.24-1.11,.07-.47-.17-.3-.34,.34-.34,.64-.07,.98,.1,.74,.3l.03-.03Z"/>
  </g>
  <g>
    <path d="M74.46,344.83c-.07,.61-.13,1.92-.2,3.88-.13,3.3-.44,6.78-.88,10.32s-.88,5.6-1.25,6.07-1.08,.74-2.09,.74c-1.82,0-2.73-.94-2.73-2.83,1.21-8.43,1.82-13.89,1.82-16.42,0-.94-.24-1.42-.71-1.42-.4,0-1.25,.61-2.56,1.79l-.81,.67c-5.13,4.08-9.17,7.49-12.11,10.15-2.6,2.36-4.62,4.15-6.04,5.33-.3,.24-.71,.84-1.18,1.82-.74,1.55-1.38,2.53-1.92,2.93-.54,.37-1.11,.57-1.75,.57-.61,0-1.28-.27-2.02-.81s-1.15-1.08-1.15-1.62c0-1.28,1.15-3.1,3.41-5.46,2.26-2.36,7.39-6.68,15.34-12.95,2.87-2.26,5.19-4.25,6.98-5.94-.44-.71-1.96-1.99-4.59-3.88-1.21-.88-2.87-2.29-4.89-4.28-.78-.74-1.45-1.35-2.06-1.75-4.79-3.44-7.18-5.97-7.18-7.55,0-.67,.24-1.28,.74-1.85s1.01-.84,1.55-.84c.2,0,.71,.13,1.48,.4s1.38,.61,1.82,1.01,1.45,1.38,3.07,2.97c7.39,7.25,12.41,11.5,15.11,12.75,.17,0,.34-.17,.54-.47,.13-2.97,.17-5.7,.17-8.16,0-.44,.03-1.18,.13-2.23,.1-1.01,.13-1.58,.13-1.75,0-1.11-.17-2.29-.54-3.54s-.54-2.06-.54-2.36c0-.94,.37-1.69,1.11-2.33s1.55-.91,2.46-.91c.81,0,1.45,.27,1.96,.78,.47,.54,.74,1.11,.74,1.79l-.17,4.38c-.13,3-.24,5.13-.37,6.37-.13,1.18-.17,2.33-.17,3.44,0,3.1,.13,4.92,.37,5.43,1.11-.27,3.37-2.19,6.78-5.77,3.03-3.17,6.14-6.24,9.31-9.24s5.13-4.52,5.83-4.52c.61,0,1.15,.24,1.65,.74s.74,1.08,.74,1.72c0,.34-1.08,1.62-3.2,3.84-2.12,2.23-3.91,4.01-5.26,5.29-6.74,6.47-10.12,9.78-10.12,9.91s1.99,1.92,5.94,5.33,6.64,5.53,8.09,6.37c3.3,1.92,4.96,3.71,4.96,5.26,0,.61-.27,1.21-.81,1.82s-1.05,.94-1.52,.94c-.78,0-2.36-.88-4.79-2.63s-7.25-5.8-14.57-12.11c-.61-.51-.98-.84-1.18-.94l-1.08-.74c-.3-.2-.57-.3-.84-.3-.24,0-.47,.1-.67,.3s-.34,.37-.34,.47h.03Z"/>
    <path d="M127.57,354.17c-3,2.83-6,5.02-9,6.64-3,1.62-5.29,2.39-6.91,2.39-1.82,0-3.3-.78-4.42-2.36-1.11-1.55-1.65-3.51-1.65-5.8,0-3.34,.64-7.28,1.92-11.84s2.26-7.15,2.93-7.76,1.55-.91,2.66-.91c.61,0,1.05,.34,1.38,1.05s.51,1.42,.51,2.16c0,.51-.24,1.15-.67,1.92-2.6,4.49-3.88,9.1-3.88,13.89,0,1.11,.2,2.09,.61,2.93s1.05,1.25,1.89,1.25c1.08,0,2.43-.34,4.01-.98,1.58-.67,3.37-1.75,5.4-3.24s3.34-2.73,4.05-3.64,1.18-1.99,1.48-3.17,.51-3.74,.61-7.72,1.08-5.94,2.87-5.94c1.08,0,1.75,.27,2.09,.84,.3,.57,.47,1.62,.47,3.2,0,1.18-.17,3.74-.54,7.72-.07,.88-.13,1.72-.13,2.46-.57,10.56-2.16,18.82-4.75,24.82-2.6,6-6.34,8.97-11.3,8.97-3.88,0-7.32-1.01-10.32-3.03s-4.52-3.74-4.52-5.13c0-.64,.17-1.28,.47-1.92s.71-.94,1.18-.94c.24,0,.51,.2,.78,.57,2.6,3.98,6.58,5.97,11.94,5.97,3.41,0,5.97-2.09,7.69-6.27,1.69-4.18,2.77-9.54,3.24-16.12l-.07-.03Z"/>
    <path d="M147.23,361.18c-.98,3.54-1.89,8.53-2.73,14.97l-.84,5.6c-.13,.78-.51,1.58-1.11,2.36-.61,.78-1.15,1.18-1.62,1.18-.61,0-1.32-.3-2.09-.94s-1.18-1.11-1.18-1.48c0-1.08,.24-2.6,.74-4.52,3.61-14.6,5.43-27.42,5.43-38.48v-2.5c-.07-2.12,.3-3.68,1.11-4.65s1.69-1.45,2.73-1.45c.47,0,.94,.37,1.35,1.11,.44,.74,.64,1.79,.64,3.17,0,1.92-.2,4.25-.61,6.98-.51,3.44-.78,5.43-.81,5.94,2.93-5.13,6.07-9.14,9.37-12.04s6.37-4.32,9.17-4.32c1.99,0,3.68,.74,5.06,2.23s2.06,3.34,2.06,5.56c0,6.44-2.46,12.27-7.42,17.54s-9.75,7.89-14.43,7.89c-1.18,0-2.09-.3-2.77-.88s-1.38-1.69-2.12-3.24l.07-.03Zm18.41-23.88c-2.8,0-6.24,2.6-10.35,7.82-4.11,5.23-6.17,9.27-6.17,12.17,0,.71,.4,1.42,1.21,2.09s1.82,1.01,3.07,1.01c2.83,0,6.07-2.09,9.75-6.27,3.68-4.18,5.5-8.3,5.5-12.31,0-1.45-.3-2.56-.88-3.34-.57-.78-1.32-1.18-2.16-1.18h.03Z"/>
    <path d="M200.75,353.86c-2.77,3.71-5.5,6.51-8.19,8.36s-5.19,2.8-7.45,2.8c-1.52,0-2.83-.64-3.95-1.92s-1.65-2.93-1.65-4.96c0-5.19,2.33-10.79,6.98-16.79s9.27-9,13.83-9c1.65,0,2.9,.94,3.71,2.83,.27,.64,.67,.94,1.21,.94,1.58,0,2.36,.61,2.36,1.82,0,.61-.1,1.45-.3,2.53-1.08,5.83-1.58,9.95-1.58,12.34,0,4.79,.91,7.65,2.73,8.6,.88,.47,1.32,1.05,1.32,1.75,0,.61-.44,1.25-1.28,1.85-.84,.64-1.69,.94-2.46,.94-1.52,0-2.77-1.05-3.78-3.14s-1.48-5.09-1.48-8.94v-.03Zm-1.82-16.69c-2.6,0-5.63,2.46-9.1,7.32-3.47,4.89-5.19,8.94-5.19,12.17,0,2.26,.74,3.41,2.26,3.41,2.16,0,5.19-2.19,9.04-6.58s5.77-8.43,5.77-12.11c0-2.83-.94-4.25-2.8-4.25l.03,.03Z"/>
    <path d="M234.71,334.44c4.49,1.82,6.74,6.14,6.74,12.92,0,5.09-1.58,9.54-4.79,13.35-3.2,3.81-6.64,5.73-10.39,5.73-3.34,0-5.94-1.32-7.79-3.98-1.85-2.66-2.8-6.51-2.8-11.63,0-6.14,1.08-12.38,3.24-18.65,2.16-6.31,4.86-11.06,8.09-14.26,3.24-3.2,6.51-4.82,9.81-4.82,1.99,0,3.61,.67,4.82,1.96,1.21,1.32,1.82,3.14,1.82,5.46,0,1.85-.81,4.05-2.43,6.61s-3.74,4.96-6.37,7.25l.03,.07Zm1.32,13.76c0-2.93-.54-5.33-1.62-7.12s-2.29-2.7-3.61-2.7c-.4,0-2.6,1.52-6.61,4.55-1.01,.78-2.02,1.52-3,2.19-.3,1.69-.44,3.57-.44,5.6,0,3.61,.54,6.31,1.62,8.13s2.56,2.73,4.45,2.73c2.66,0,4.86-1.38,6.61-4.18,1.75-2.77,2.63-5.83,2.63-9.17v-.07l-.03,.03Zm-14.16-8.36c7.62-5.87,12.31-10.05,14.1-12.58s2.7-4.49,2.7-5.94c0-2.33-.94-3.47-2.8-3.47-2.6,0-5.19,1.96-7.82,5.83s-4.69,9.27-6.2,16.15h.03Z"/>
    <path d="M264.08,340.48c-.47,0-.94,.44-1.38,1.35-4.08,8.19-7.18,13.72-9.27,16.66-.17,.27-.4,.64-.67,1.11-2.46,4.42-4.28,6.61-5.43,6.61-1.55,0-2.33-.74-2.33-2.23,0-1.35,.94-3.17,2.87-5.5,1.85-2.19,4.28-5.9,7.32-11.16,3.03-5.26,5.46-9.95,7.35-14.13,.37-.74,.88-1.11,1.58-1.11,.3,0,.81,.13,1.58,.4,.74,.27,1.25,.57,1.45,.88s.71,2.16,1.45,5.5c2.43,12.11,4.99,19.29,7.69,21.55,.64,.54,1.01,.91,1.11,1.11,.13,.2,.17,.44,.17,.78,0,.61-.2,1.18-.61,1.69s-.78,.81-1.15,.98-1.15,.2-2.33,.2c-.4,0-1.38-1.01-2.9-3.07s-3.3-7.62-5.33-16.73c-.51-2.46-.91-4.08-1.25-4.92l.07,.03Z"/>
    <path d="M304.61,351.74c-2.53,4.25-5.13,7.55-7.76,9.88s-5.09,3.51-7.39,3.51c-1.32,0-2.63-.78-3.98-2.29s-2.02-3.88-2.02-7.01c0-2.6,.61-6.41,1.85-11.43,1.05-4.22,1.58-7.15,1.58-8.87,.57-1.18,1.48-1.79,2.7-1.79,.84,0,1.48,.3,1.99,.88,.51,.57,.74,1.18,.74,1.82,0,1.38-.47,3.34-1.45,5.9-1.82,4.96-2.77,9.21-2.77,12.78,0,3.24,.74,4.86,2.26,4.86,1.92,0,4.35-1.62,7.32-4.89s5.5-7.79,7.62-13.62c.84-2.33,1.52-3.84,2.02-4.55s1.25-1.05,2.12-1.05c1.35,0,2.02,.88,2.02,2.66,0,.2-.2,.94-.57,2.16-1.18,4.32-1.79,8.43-1.79,12.27,0,4.62,.78,7.62,2.29,8.97,.78,.74,1.18,1.32,1.18,1.79,0,.54-.4,1.05-1.21,1.52-.81,.44-1.52,.67-2.19,.67-1.38,0-2.5-1.01-3.34-3.07s-1.28-5.09-1.28-9.1v-1.96l.03-.03Z"/>
    <path d="M326.73,349.04c4.69-.81,8.87-3.84,12.61-9.07,1.75-2.43,3.27-4.15,4.59-5.16,1.32-1.01,2.7-1.52,4.18-1.52,.61,0,1.18,.27,1.79,.81s.88,1.18,.88,1.89c0,.98-.91,1.72-2.77,2.29-.98,.3-1.89,.81-2.73,1.52s-2.46,2.39-4.82,5.09c-1.85,2.09-3.54,3.57-5.02,4.42-.13,.07-.2,.13-.2,.2s.1,.17,.27,.24c1.45,.78,2.97,2.26,4.55,4.49,2.33,3.24,4.08,5.26,5.26,6.1s2.5,1.25,4.01,1.25h.98c.71-.07,1.05,.24,1.05,.88,0,.74-.44,1.52-1.28,2.33s-2.26,1.21-4.22,1.21c-1.52,0-2.97-.64-4.38-1.96-1.42-1.28-3.03-3.41-4.86-6.31-1.05-1.72-2.02-3.03-2.93-3.91s-1.92-1.35-3.03-1.35c-.24,0-.98,.2-2.19,.61s-1.92,.78-2.06,1.15c-.13,.37-.27,1.69-.34,3.95s-.1,4.08-.1,5.46c0,.74-.34,1.38-1.05,1.96s-1.45,.84-2.26,.84-1.48-.24-1.96-.71-.71-.98-.71-1.48c0-.71,.27-2.39,.81-5.02,.94-4.82,1.89-12.78,2.83-23.88,.07-1.08,.47-2.02,1.21-2.9,.74-.84,1.55-1.28,2.5-1.28,.51,0,.94,.27,1.28,.84,.34,.54,.51,1.28,.51,2.12,0,.71-.13,1.48-.37,2.36-1.11,4.08-1.82,8.26-2.09,12.54h.07Z"/>
  </g>
</svg>
